# xmcd
#
# Track frame offsets:
#	150
#	15362
#	30230
#	47747
#	67640
#	81217
#	96792
#	116217
#	133755
#	148865
#	162922
#	178234
#	194902
#	211482
#	232635
#
# Disc length: 3347 seconds
#
# Revision: 2
# Processed by: cddbd v1.5.2PL0 Copyright (c) Steve Scherf et al.
# Submitted via: EZCDAudioConverter 8.0.2.1
#
DISCID=ca0d110f
DTITLE=JOÃO PAULO and DANIEL - VOL.06 - EU ME AMARREI [CD C450999810-2) CHANTECL
DTITLE=ER
DYEAR=1995
DGENRE=Country
TTITLE0=ALGUÉM (BY GILMAR SINISTRO)
TTITLE1=TOMA CONTA DE MIM (BY GILMAR SINISTRO)
TTITLE2=HOJE EU SEI (BY GILMAR SINISTRO)
TTITLE3=SE VOCÊ QUISER VOLTAR (BY GILMAR SINISTRO)
TTITLE4=VAI E VOLTA (BY GILMAR SINISTRO)
TTITLE5=VOCÊ NÃO MORRE MAIS (BY GILMAR SINISTRO)
TTITLE6=QUE DURE PARA SEMPRE (BY GILMAR SINISTRO)
TTITLE7=APAIXONADO POR VOCÊ (BY GILMAR SINISTRO)
TTITLE8=EU ME AMARREI (BY GILMAR SINISTRO)
TTITLE9=VOCÊ SÓ ME FAZ FELIZ (BY GILMAR SINISTRO)
TTITLE10=ESTOU TENTADO TE ESQUECER (BY GILMAR SINISTRO)
TTITLE11=OLHOS CLAROS (BY GILMAR SINISTRO)
TTITLE12=EMBOSCADA DE AMOR (BY GILMAR SINISTRO)
TTITLE13=SÓ EU E VOCÊ (BY GILMAR SINISTRO)
TTITLE14=ESTOU NA PIOR (BY GILMAR SINISTRO)
EXTD=
EXTT0=
EXTT1=
EXTT2=
EXTT3=
EXTT4=
EXTT5=
EXTT6=
EXTT7=
EXTT8=
EXTT9=
EXTT10=
EXTT11=
EXTT12=
EXTT13=
EXTT14=
PLAYORDER=
